<svg id="Capa_1" xmlns="http://www.w3.org/2000/svg" viewBox="0 0 290.86 75.29"><g><path class="cls-1" d="M35.05,2.69c3.35,1.8,6.12,4.63,8.29,8.51,1.97,3.42,3.24,7.38,3.83,11.89,.34,2.64,.48,6.45,.41,11.42H12.63c.2,5.77,1.87,9.81,5.02,12.14,1.92,1.44,4.22,2.17,6.92,2.17,2.86,0,5.19-.88,6.97-2.64,.97-.95,1.83-2.27,2.58-3.95h12.81c-.34,3.41-1.89,6.88-4.65,10.39-4.3,5.6-10.32,8.4-18.05,8.4-6.38,0-12.02-2.36-16.9-7.08C2.44,49.21,0,41.53,0,30.9,0,20.93,2.2,13.29,6.61,7.97,11.01,2.66,16.73,0,23.77,0c4.18,0,7.94,.9,11.28,2.69ZM16.28,15.69c-1.77,2.19-2.88,5.16-3.34,8.9h21.61c-.23-3.99-1.34-7.02-3.34-9.09-2-2.07-4.48-3.1-7.44-3.1-3.22,0-5.72,1.1-7.49,3.29Z"/><path class="cls-1" d="M72.86,32.59c-.17-1.54-.61-2.93-1.3-4.17-1.02-1.66-2.58-2.5-4.72-2.5-3.04,0-5.12,1.8-6.23,5.42-.59,1.91-.89,4.45-.89,7.63s.29,5.45,.89,7.29c1.08,3.44,3.1,5.15,6.07,5.15,2.11,0,3.61-.68,4.5-2.04,.89-1.36,1.43-3.13,1.62-5.3h9.2c-.21,3.28-1.21,6.38-2.98,9.31-2.83,4.72-7.01,7.08-12.55,7.08s-9.62-1.96-12.23-5.9c-2.61-3.94-3.92-9.04-3.92-15.32,0-7.08,1.44-12.58,4.33-16.52,2.89-3.94,6.87-5.91,11.95-5.91,4.32,0,7.86,1.16,10.6,3.49,2.75,2.32,4.38,6.42,4.89,12.3h-9.22Z"/><path class="cls-1" d="M97.43,59.05h-9V3.25h9V59.05Z"/><path class="cls-1" d="M115.46,12.86h-9.12V2.9h9.12V12.86Zm-9.12,4.92h9.12V59.05h-9.12V17.79Z"/><path class="cls-1" d="M153.12,22.21c2.81,3.56,4.21,8.78,4.21,15.67,0,7.28-1.37,12.81-4.12,16.62-2.75,3.81-6.28,5.72-10.6,5.72-2.75,0-5.04-.83-6.87-2.46-1-.91-1.97-2.24-2.92-3.98v21.51h-8.91V17.79h8.62v6.09c.98-1.79,2.02-3.2,3.12-4.24,2.01-1.84,4.41-2.76,7.18-2.76,4.05,0,7.48,1.78,10.28,5.33Zm-6.9,7.76c-1.22-2.45-3.21-3.67-5.95-3.67-3.3,0-5.56,1.85-6.79,5.57-.64,1.97-.96,4.46-.96,7.5,0,4.79,1.07,8.16,3.22,10.11,1.28,1.13,2.79,1.7,4.54,1.7,2.53,0,4.46-1.16,5.79-3.48,1.33-2.32,2-5.41,2-9.27,0-3.18-.61-6-1.83-8.44Z"/><path class="cls-1" d="M170.67,45.88c.19,1.92,.6,3.28,1.24,4.09,1.12,1.44,3.19,2.16,6.22,2.16,1.78,0,3.19-.31,4.24-.95,1.05-.63,1.57-1.58,1.57-2.83s-.42-2.14-1.26-2.76c-.84-.63-3.98-1.72-9.42-3.26-3.91-1.16-6.67-2.61-8.27-4.35-1.6-1.71-2.4-4.19-2.4-7.41,0-3.82,1.25-7.09,3.75-9.83,2.5-2.74,6.02-4.11,10.55-4.11s7.82,1.03,10.53,3.09c2.71,2.05,4.27,5.61,4.67,10.66h-9c-.13-1.39-.45-2.49-.98-3.29-.99-1.46-2.68-2.2-5.07-2.2-1.96,0-3.36,.37-4.19,1.1-.83,.73-1.25,1.59-1.25,2.57,0,1.24,.45,2.14,1.33,2.69,.89,.59,4.02,1.58,9.4,2.99,3.58,1.01,6.27,2.54,8.06,4.58,1.77,2.07,2.66,4.66,2.66,7.76,0,4.09-1.27,7.43-3.81,10.01-2.54,2.59-6.47,3.88-11.79,3.88s-9.43-1.37-12.01-4.11c-2.58-2.74-3.87-6.23-3.87-10.46h9.13Z"/><path class="cls-1" d="M267.81,2.74c.46,.03,1.09,.09,1.9,.17V11.69c-.51-.08-1.36-.13-2.54-.17-1.19-.04-2.01,.28-2.46,.95-.45,.67-.68,1.41-.68,2.22v3.48h5.91v7.61h-5.91V59.05h-8.94V25.78h-5.05v-7.61h4.93v-2.65c0-4.41,.62-7.46,1.87-9.12,1.3-2.48,4.45-3.71,9.44-3.71,.57,0,1.08,.02,1.55,.06Z"/><path class="cls-1" d="M271.57,25.85v-7.68h4.8V6.66h8.91v11.51h5.59v7.68h-5.59v21.8c0,1.7,.18,2.75,.54,3.17,.36,.41,1.45,.62,3.28,.62,.28,0,.56,0,.87-.01,.31-.01,.6-.03,.9-.06v8.06l-4.26,.19c-4.25,.18-7.16-.71-8.72-2.65-1.01-1.23-1.52-3.14-1.52-5.72V25.85h-4.8Z"/></g><path class="cls-1" d="M230.38,18.44c-2.39,0-4.67,.55-6.74,1.55-2.36-1.3-5-2.05-7.78-2.05-9.99,0-18.12,9.33-18.12,20.8s8.13,20.81,18.12,20.81c2.79,0,5.42-.75,7.78-2.05,2.08,.99,4.35,1.55,6.74,1.55,9.73,0,17.62-9.09,17.62-20.31s-7.89-20.3-17.62-20.3Zm-14.53,40.11c-9.44,0-17.12-8.89-17.12-19.81s7.68-19.8,17.12-19.8c2.39,0,4.67,.58,6.74,1.61-5.82,3.31-9.84,10.2-9.84,18.19s4.01,14.88,9.84,18.2c-2.07,1.03-4.35,1.61-6.75,1.61Z"/></svg>