<svg xmlns="http://www.w3.org/2000/svg" viewBox="0 0 362.19 69.99"><defs><style>.cls-1,.cls-2{fill:#fff;}.cls-2{fill-rule:evenodd;}</style></defs><title>LogoBancodeLoja</title><g id="Capa_2" data-name="Capa 2"><g id="Capa_1-2" data-name="Capa 1"><path class="cls-1" d="M67.16,41.78a29.48,29.48,0,0,0,1.15-13c-.12-.9-.3-1.78-.5-2.65a31.32,31.32,0,0,1-.65,15.68"/><path class="cls-1" d="M49.28,3.33A35,35,0,0,0,45.86,2l.78.28c.91.36,1.79.72,2.65,1.1"/><path class="cls-1" d="M42.78,1l.07,0-.07,0"/><path class="cls-1" d="M54.78,58.86l-.17.11.17-.11"/><path class="cls-1" d="M62.55,14.28l.21.3-.21-.3"/><path class="cls-1" d="M60.35,11.55c.57.66,1.15,1.37,1.74,2.13q-.83-1.1-1.74-2.13"/><path class="cls-1" d="M63.41,15.55c.2.31.4.63.6,1-.2-.33-.39-.65-.6-1"/><path class="cls-1" d="M37.57,65.22a35.08,35.08,0,0,0,16.2-5.67A34.7,34.7,0,0,1,45,63.68a39.12,39.12,0,0,1-7.44,1.54"/><path class="cls-1" d="M.05,34.44c0-.08,0-.16,0-.25,0,.08,0,.16,0,.25"/><path class="cls-1" d="M37.7.19l.21,0-.21,0"/><path class="cls-1" d="M39.11.36,40,.49,39.11.36"/><path class="cls-1" d="M64.07,16.61a35.41,35.41,0,0,1,3.74,9.49,31.54,31.54,0,0,0-3.74-9.49"/><path class="cls-1" d="M19.44,62.17l0,0,0,0"/><path class="cls-1" d="M.21,36.23c0-.08,0-.16,0-.25l0,.25"/><path class="cls-1" d="M40.65.61l.77.14L40.65.61"/><path class="cls-1" d="M7.25,52.78a33.49,33.49,0,0,0,4.34,4.4,41.51,41.51,0,0,1-4.34-4.4"/><path class="cls-1" d="M34.31,41.81v0"/><path class="cls-1" d="M34.31,41.81v0"/><path class="cls-1" d="M38.21,44.55c2.83.25,10.4.07,14.37.07,4.68,0,13.51,0,13.51,0s-9.6-.28-14.91-.42c-3.4-.09-9.67-.2-12-.38-4-.32-4.81-1.86-4.9-2.06a4.5,4.5,0,0,0,3.9,2.74"/><path class="cls-1" d="M38.21,44.55c2.83.25,10.4.07,14.37.07,4.68,0,13.51,0,13.51,0s-9.6-.28-14.91-.42c-3.4-.09-9.67-.2-12-.38-4-.32-4.81-1.86-4.9-2.06a4.5,4.5,0,0,0,3.9,2.74"/><path class="cls-1" d="M34.3,44.29v0"/><path class="cls-1" d="M34.3,44.29v0"/><path class="cls-1" d="M38.25,46.67c2.84.1,10.42.15,14.38.15H65.12s-8.6-.32-13.91-.46c-3.4-.09-9.66-.26-12-.38-4.15-.22-4.86-1.5-4.93-1.68a4.12,4.12,0,0,0,3.94,2.36"/><path class="cls-1" d="M38.25,46.67c2.84.1,10.42.15,14.38.15H65.12s-8.6-.32-13.91-.46c-3.4-.09-9.66-.26-12-.38-4.15-.22-4.86-1.5-4.93-1.68a4.12,4.12,0,0,0,3.94,2.36"/><path class="cls-1" d="M64,16.52l.06.09L64,16.52"/><path class="cls-1" d="M62.76,14.58c.22.32.44.64.65,1-.22-.35-.43-.66-.65-1"/><path class="cls-1" d="M34.39,0V0q1.68,0,3.31.16C35.71,0,34.39,0,34.39,0"/><path class="cls-1" d="M37.91.21l1.2.15L37.91.21"/><path class="cls-1" d="M41.42.75c.45.09.91.19,1.36.3L41.42.75"/><path class="cls-1" d="M40,.49l.69.12L40,.49"/><path class="cls-1" d="M42.85,1.07c1,.25,2,.55,3,.89a30.55,30.55,0,0,0-3-.89"/><path class="cls-1" d="M62.31,13.94l-.21-.27.45.6-.24-.34"/><path class="cls-1" d="M60.35,11.55A29.7,29.7,0,0,0,49.28,3.34a34.21,34.21,0,0,1,11.07,8.21"/><path class="cls-1" d="M34.39,32.65c0,2.93.41,7,1.79,8.23s2.93,1.56,6.28,1.56l24.47,0s.09-.22.23-.63a31.32,31.32,0,0,0,.65-15.68,35.4,35.4,0,0,0-3.74-9.48L64,16.52c-.2-.35-.4-.66-.6-1s-.43-.65-.65-1l-.21-.3-.45-.61c-.59-.76-1.17-1.47-1.74-2.13A34.18,34.18,0,0,0,49.28,3.33c-.86-.38-1.73-.74-2.65-1.1L45.86,2c-1-.34-2-.64-3-.89l-.07,0c-.45-.11-.9-.21-1.36-.3L40.65.61,40,.49,39.11.36,37.91.22l-.21,0Q36.06,0,34.39,0c0,.68-.07,26.64,0,32.62"/><path class="cls-1" d="M34.39,32.65c0,2.93.41,7,1.79,8.23s2.93,1.56,6.28,1.56l24.47,0s.09-.22.23-.63a31.32,31.32,0,0,0,.65-15.68,35.4,35.4,0,0,0-3.74-9.48L64,16.52c-.2-.35-.4-.66-.6-1s-.43-.65-.65-1l-.21-.3-.45-.61c-.59-.76-1.17-1.47-1.74-2.13A34.18,34.18,0,0,0,49.28,3.33c-.86-.38-1.73-.74-2.65-1.1L45.86,2c-1-.34-2-.64-3-.89l-.07,0c-.45-.11-.9-.21-1.36-.3L40.65.61,40,.49,39.11.36,37.91.22l-.21,0Q36.06,0,34.39,0c0,.68-.07,26.64,0,32.62"/><path class="cls-1" d="M17.21,4.37A31.36,31.36,0,0,0,3.64,18,30.71,30.71,0,0,0,0,34.2c0-.5,0-1,0-1.49A32.42,32.42,0,0,1,17.21,4.37"/><path class="cls-1" d="M.18,36c-.05-.51-.09-1-.12-1.55Q.1,35.2.18,36"/><path class="cls-1" d="M54.61,59l-.84.57.84-.57"/><path class="cls-1" d="M7.25,52.78a32.47,32.47,0,0,1-3.71-5.62q.23.49.47,1a21.5,21.5,0,0,0,1.75,2.79c.48.63,1,1.24,1.49,1.84"/><path class="cls-1" d="M.21,36.23c.06.53.11,1.06.2,1.61L.46,38c-.1-.59-.19-1.18-.26-1.78"/><path class="cls-1" d="M15.82,60.29q1.77,1,3.58,1.85a34.41,34.41,0,0,1-7.82-5,28.53,28.53,0,0,0,4.24,3.11"/><path class="cls-1" d="M54.78,58.86a29.3,29.3,0,0,0,5.11-4.45h0a33.93,33.93,0,0,1-5.07,4.45"/><path class="cls-1" d="M19.44,62.17a34.24,34.24,0,0,0,18.13,3.05c-1.09.1-2.2.15-3.31.15a35.5,35.5,0,0,1-14.82-3.21"/><path class="cls-1" d="M2.59,44.69a16.65,16.65,0,0,0,1,2.47,32.56,32.56,0,0,0,3.71,5.62,41.51,41.51,0,0,0,4.34,4.4,34.45,34.45,0,0,0,7.82,5l0,0a35.52,35.52,0,0,0,14.82,3.21c1.12,0,2.22-.06,3.31-.15A39.07,39.07,0,0,0,45,63.68a34.67,34.67,0,0,0,8.76-4.13l.84-.57.17-.11a34,34,0,0,0,5.07-4.45l-10,0a118.13,118.13,0,0,1-12.44-.31,23.52,23.52,0,0,1-14.1-6.76,21.59,21.59,0,0,1-5.74-12.17c-.43-2.59-.21-30.89-.21-30.89l-.1,0A32.42,32.42,0,0,0,0,32.7c0,.5,0,1,0,1.49,0,.08,0,.16,0,.25,0,.52.07,1,.12,1.55,0,.08,0,.17,0,.25.07.6.15,1.19.26,1.78.33,1,1.6,4.69,2.12,6.68"/><path class="cls-1" d="M2.59,44.69a16.65,16.65,0,0,0,1,2.47,32.56,32.56,0,0,0,3.71,5.62,41.51,41.51,0,0,0,4.34,4.4,34.45,34.45,0,0,0,7.82,5l0,0a35.52,35.52,0,0,0,14.82,3.21c1.12,0,2.22-.06,3.31-.15A39.07,39.07,0,0,0,45,63.68a34.67,34.67,0,0,0,8.76-4.13l.84-.57.17-.11a34,34,0,0,0,5.07-4.45l-10,0a118.13,118.13,0,0,1-12.44-.31,23.52,23.52,0,0,1-14.1-6.76,21.59,21.59,0,0,1-5.74-12.17c-.43-2.59-.21-30.89-.21-30.89l-.1,0A32.42,32.42,0,0,0,0,32.7c0,.5,0,1,0,1.49,0,.08,0,.16,0,.25,0,.52.07,1,.12,1.55,0,.08,0,.17,0,.25.07.6.15,1.19.26,1.78.33,1,1.6,4.69,2.12,6.68"/><path class="cls-1" d="M1.34,41.73a26.09,26.09,0,0,1-.89-3.51c0-.13,0-.25,0-.38l0-.06c.32,3,.38,4.38.61,5.57,0,.13.06.27.1.41C1,43.33.92,42.93.87,42.61c0,0,1.23,3.19,2,5.06l1.23,2.85c.34.63.67,1.21.92,1.58.42.63,1.53,2.12,2.83,3.72a30.45,30.45,0,0,0,4.79,4.49,27.13,27.13,0,0,0,4.68,3.08,32.68,32.68,0,0,0,5.85,2.44,39.66,39.66,0,0,0,11.16,1.91A30.25,30.25,0,0,0,42.29,67a34.63,34.63,0,0,0,7.4-2.34,32.37,32.37,0,0,0,3.79-1.91,24.3,24.3,0,0,0,3.26-2.3c.92-.78,2.52-2.23,2.52-2.23s-3.6,2.74-4.6,3.39a35.44,35.44,0,0,1-5.88,3,34.75,34.75,0,0,1-5.71,1.74A31.64,31.64,0,0,1,33,67a42.38,42.38,0,0,1-11.86-2.66,29.17,29.17,0,0,1-8.08-4.68,30.88,30.88,0,0,1-6-6.06A46.21,46.21,0,0,1,4,48.16c-.42-.78-.81-1.6-1.17-2.43a31.53,31.53,0,0,1-1.5-4"/><path class="cls-1" d="M2.84,45.73a41.89,41.89,0,0,1-1.5-4,31.62,31.62,0,0,0,1.5,4"/><path class="cls-1" d="M2.84,45.73a41.89,41.89,0,0,1-1.5-4,31.62,31.62,0,0,0,1.5,4"/><path class="cls-1" d="M2.84,45.73c.36.83.75,1.64,1.17,2.43-.17-.34-.33-.67-.47-1s-.48-.95-.7-1.43"/><path class="cls-1" d="M2.84,45.73c.36.83.75,1.64,1.17,2.43-.17-.34-.33-.67-.47-1s-.48-.95-.7-1.43"/><path class="cls-1" d="M1.34,41.73A31.14,31.14,0,0,1,.46,38L.4,37.84c0,.13,0,.25,0,.38a26.09,26.09,0,0,0,.89,3.51"/><path class="cls-1" d="M1.34,41.73A31.14,31.14,0,0,1,.46,38L.4,37.84c0,.13,0,.25,0,.38a26.09,26.09,0,0,0,.89,3.51"/><path class="cls-1" d="M.46,38a31.28,31.28,0,0,0,.88,3.72,41.83,41.83,0,0,0,1.5,4q.33.73.7,1.43a16.43,16.43,0,0,1-1-2.47C2.06,42.71.79,39,.46,38"/><path class="cls-1" d="M.46,38a31.28,31.28,0,0,0,.88,3.72,41.83,41.83,0,0,0,1.5,4q.33.73.7,1.43a16.43,16.43,0,0,1-1-2.47C2.06,42.71.79,39,.46,38"/><path class="cls-1" d="M.46,38a31.28,31.28,0,0,0,.88,3.72,41.83,41.83,0,0,0,1.5,4q.33.73.7,1.43a16.43,16.43,0,0,1-1-2.47C2.06,42.71.79,39,.46,38"/><path class="cls-1" d="M1.08,43.75c.3,1.49.74,3.39,1,4a23.11,23.11,0,0,0,1.17,3,36.87,36.87,0,0,0,2.23,4A34.92,34.92,0,0,0,8,58.19a29.84,29.84,0,0,0,3.4,3.4A25.73,25.73,0,0,0,16.3,65a52.13,52.13,0,0,0,6.38,2.87,37.36,37.36,0,0,0,10.57,2,33,33,0,0,0,9.35-.57A41.89,41.89,0,0,0,50,67a24.07,24.07,0,0,0,3.79-1.91,20.21,20.21,0,0,0,3-2.1c.92-.78,2-1.81,2-1.81s-3.55,2.6-4.57,3.23a42.3,42.3,0,0,1-5,2.48,38,38,0,0,1-5.9,1.79,29.17,29.17,0,0,1-9,.69,45.58,45.58,0,0,1-11.48-2.23,36.08,36.08,0,0,1-10-5.42,35.48,35.48,0,0,1-7.07-7.85,14.57,14.57,0,0,1-1.69-3.33C3.33,49,2.45,47.23,2.24,46.7a22,22,0,0,1-1.15-2.95"/><path class="cls-1" d="M.87,42.61c.05.32.13.72.21,1.14A22,22,0,0,0,2.24,46.7c.21.53,1.09,2.34,1.89,3.82L2.9,47.67c-.8-1.87-2-5.06-2-5.06"/><path class="cls-1" d="M.87,42.61c.05.32.13.72.21,1.14A22,22,0,0,0,2.24,46.7c.21.53,1.09,2.34,1.89,3.82L2.9,47.67c-.8-1.87-2-5.06-2-5.06"/><path class="cls-2" d="M86,26.56c0-4.83,0-5.68-.06-6.68s-.33-1.55-1.46-1.75A5.23,5.23,0,0,0,83.3,18c-.14,0-.28-.06-.28-.18s.16-.24.55-.24c1.53,0,3.67.1,3.84.1.81,0,2.14-.1,3.71-.1,5.57,0,6.79,3.09,6.79,4.64,0,2.54-1.59,4.05-3.2,5.59,2.52.71,5.89,2.9,5.89,6.54,0,3.3-2.87,6.71-8.67,6.71-.78,0-4.25-.17-4.52-.17s-2.31.11-3.32.11c-.37,0-.55-.08-.55-.26s.07-.16.27-.16a4.15,4.15,0,0,0,1-.16c.68-.11.85-.79,1-1.69C86,37.44,86,35,86,32Zm2.72.7a.29.29,0,0,0,.25.33,11.32,11.32,0,0,0,2.07.13c1.9,0,2.39-.06,3.09-.8a4.46,4.46,0,0,0,1.24-3.12c0-2.57-1.27-5.34-4.59-5.34a8.56,8.56,0,0,0-1.65.16c-.3.07-.41.16-.41.33V30.53c0,2.39,0,6.23,0,6.68.09,1.53.09,2,1.15,2.42a9,9,0,0,0,3,.48c1.84,0,4.8-.9,4.8-4.4a7.2,7.2,0,0,0-3.29-6.21,6,6,0,0,0-2.81-.87c-.45-.07-2.14-.07-2.66-.07a.2.2,0,0,0-.21.22V27.26Z"/><path class="cls-2" d="M112.53,18.35c.4-1,.55-1.21.75-1.21s.35.16.73,1.11c.52,1.18,5.87,14,7.93,18.68,1.23,2.77,2.21,3.26,2.93,3.43a4.66,4.66,0,0,0,1.33.21c.23,0,.36,0,.36.16s-.29.26-.68.26-3,0-5.32-.08c-.66,0-1,0-1-.2s.12-.19.24-.21.4-.34.21-.84L116.81,32a.31.31,0,0,0-.31-.18h-7.3c-.19,0-.28.1-.35.27l-2,5.46a6.17,6.17,0,0,0-.46,2.08c0,.61.7.91,1.27.91H108c.24,0,.34,0,.34.16s-.2.26-.5.26c-.81,0-2.3-.11-2.66-.11s-2.24.11-3.83.11c-.47,0-.65-.08-.65-.26s.12-.16.29-.16.71-.05,1-.07c1.56-.19,2.23-1.37,2.84-2.92Zm3.52,12.38c.18,0,.18-.08.15-.21L113,22.19c-.19-.46-.35-.46-.51,0l-3,8.34c-.07.17,0,.21.09.21Z"/><path class="cls-2" d="M133.76,36.79c.06,2.54.41,3.34,1.32,3.58a8.13,8.13,0,0,0,1.69.21c.18,0,.29,0,.29.16s-.2.26-.61.26c-1.93,0-3.3-.11-3.6-.11s-1.74.11-3.27.11c-.34,0-.53,0-.53-.26s.1-.16.26-.16a5.32,5.32,0,0,0,1.39-.21c.85-.21,1-1.09,1-3.91l0-17.76c0-1.19.12-1.56.38-1.56s.86.69,1.18,1c.51.51,5.59,5.52,10.83,10.61,3.35,3.29,7,7.07,8.15,8.1l-.38-15.74c0-2-.27-2.69-1.31-2.93a9.88,9.88,0,0,0-1.66-.18c-.26,0-.29-.09-.29-.19s.29-.22.68-.22c1.54,0,3.16.09,3.55.09s1.49-.09,2.89-.09c.36,0,.61,0,.61.22s-.12.19-.36.19a2.4,2.4,0,0,0-.82.13c-1.14.19-1.28.89-1.28,2.75L153.85,39c0,2-.07,2.21-.31,2.21s-.67-.36-2.49-2c-.36-.29-5.25-4.85-8.86-8.39-3.94-3.87-7.78-7.77-8.88-8.89Z"/><path class="cls-2" d="M162,38.09A11.33,11.33,0,0,1,158,28.93a11.85,11.85,0,0,1,3.79-8.46c2-1.86,5.13-3.33,10.37-3.33a32,32,0,0,1,4.93.38,30,30,0,0,0,3.46.46c.37,0,.43.17.43.34s-.09.62-.16,1.75-.06,2.73-.11,3.19-.1.64-.31.64-.27-.22-.27-.64a4.1,4.1,0,0,0-1.42-3.18,12.06,12.06,0,0,0-6.8-1.77c-4.51,0-6.62,1.21-7.81,2.28-2.5,2.17-3.07,4.93-3.07,8.09,0,5.92,5,11.3,12.26,11.3,2.56,0,4.58-.26,5.92-1.55a5.59,5.59,0,0,0,1.26-2.58c.07-.34.14-.46.34-.46s.24.22.24.46a29.33,29.33,0,0,1-.76,4c-.2.58-.27.64-.86.89a21.38,21.38,0,0,1-6.14.71c-5.1,0-8.51-1.16-11.21-3.35"/><path class="cls-2" d="M196.84,17.14c7.64,0,13.34,4.41,13.34,11.62,0,7-5.36,12.67-13.56,12.67-9.32,0-13.17-6.6-13.17-12.16,0-5,4-12.13,13.39-12.13m.71,23.12c3.05,0,9.36-1.62,9.36-10.61,0-7.46-4.95-11.46-10.33-11.46-5.66,0-9.91,3.42-9.91,10.2,0,7.23,4.76,11.86,10.88,11.86"/><path class="cls-2" d="M227.24,26.56c0-4.83,0-5.68-.09-6.69s-.31-1.54-1.43-1.74a6,6,0,0,0-1.17-.11c-.12,0-.26-.07-.26-.17s.17-.25.56-.25c1.53,0,3.64.09,3.82.09.42,0,2.56-.09,4.59-.09,3.36,0,9.59-.29,13.63,3.52A10.6,10.6,0,0,1,250.18,29a12.11,12.11,0,0,1-3.67,8.74c-1.48,1.39-4.51,3.57-10.3,3.57-2.92,0-7.21-.4-7.54-.4s-2.29.1-3.34.1c-.36,0-.54-.07-.54-.26s.07-.16.28-.16a4.36,4.36,0,0,0,1-.15c.68-.11.86-.8,1-1.69.16-1.3.16-3.74.16-6.73Zm2.85,3.37c0,3.27.05,6.13.08,6.71a6.1,6.1,0,0,0,.37,2.36c.44.58,1.76,1.23,5.79,1.23a12,12,0,0,0,8.08-2.88c1.75-1.58,2.71-4.55,2.71-7.4a10.56,10.56,0,0,0-3.27-7.8c-3.2-3.08-7.05-3.49-11.1-3.49a10.42,10.42,0,0,0-2.21.2.53.53,0,0,0-.4.61c-.05,1.08-.05,4.23-.05,6.63Z"/><path class="cls-2" d="M254.88,26.55c0-4.83,0-5.67-.09-6.68s-.33-1.55-1.48-1.74a4.79,4.79,0,0,0-1.15-.13c-.12,0-.26-.06-.26-.17s.16-.25.55-.25c1.52,0,3.65.09,3.85.09s7,0,7.77,0c.63,0,1.18-.1,1.46-.14s.3-.18.48-.18.12.15.12.3-.16.57-.28,1.44c0,.32-.09,1.67-.16,2,0,.15-.1.33-.23.33s-.28-.13-.28-.41a2.91,2.91,0,0,0-.19-1.1c-.24-.5-.57-.87-2.41-1-.59-.06-4.29-.11-4.66-.11-.13,0-.2.11-.2.33v8.54c0,.2,0,.31.2.31.45,0,4.6,0,5.4-.06a2.56,2.56,0,0,0,1.63-.44c.22-.25.35-.41.48-.41s.18.07.18.25-.18.7-.28,1.75c-.07.61-.14,1.75-.14,2s0,.61-.22.61a.24.24,0,0,1-.25-.27,2.92,2.92,0,0,0-.14-1c-.12-.43-.44-.95-1.75-1.08-.93-.1-4.3-.16-4.88-.16a.21.21,0,0,0-.22.2V32c0,1,0,4.66,0,5.3.11,2.13.6,2.52,4,2.52a11.21,11.21,0,0,0,3.27-.33c.86-.34,1.27-1,1.51-2.23.07-.36.13-.47.3-.47s.2.24.2.47a28.86,28.86,0,0,1-.43,3c-.23.78-.5.78-1.84.78-5.12,0-7.41-.17-8.37-.17-.19,0-2.33.1-3.35.1-.36,0-.54-.07-.54-.25s.08-.16.26-.16a4.57,4.57,0,0,0,1-.15c.68-.11.83-.79,1-1.69a57.33,57.33,0,0,0,.2-6.71Z"/><path class="cls-2" d="M287.28,32.09c0,4.55.13,6.54.75,7.08s1.43.72,4.07.72c1.82,0,3.32-.05,4.13-.91a4.53,4.53,0,0,0,.88-1.89c0-.23.11-.39.31-.39s.19.12.19.47a16.56,16.56,0,0,1-.5,3.09c-.22.71-.33.81-2.15.81-4.89,0-7.12-.17-9.1-.17-.31,0-2.32.1-3.32.1-.38,0-.55-.07-.55-.26s.08-.16.27-.16a4.77,4.77,0,0,0,1-.15c.68-.12.86-.8,1-1.7.15-1.29.15-3.75.15-6.71V26.55c0-4.83,0-5.67-.08-6.68s-.32-1.55-1.43-1.75a5.72,5.72,0,0,0-1.16-.12c-.16,0-.27-.06-.27-.17s.16-.25.53-.25c1.52,0,3.66.09,3.84.09s2.65-.09,3.68-.09c.38,0,.53.06.53.25s-.13.17-.26.17a7,7,0,0,0-1.13.12c-1,.14-1.27.65-1.32,1.75s-.08,1.85-.08,6.68Z"/><path class="cls-2" d="M312.13,17.14c7.67,0,13.39,4.41,13.39,11.62,0,7-5.39,12.67-13.58,12.67-9.32,0-13.18-6.6-13.18-12.16,0-5,4-12.13,13.38-12.13m.74,23.12c3,0,9.37-1.62,9.37-10.61,0-7.46-5-11.46-10.33-11.46-5.67,0-9.93,3.42-9.93,10.2,0,7.23,4.74,11.86,10.89,11.86"/><path class="cls-2" d="M332.69,34c0,5,0,6.93-1,9.14-.71,1.55-2.21,3-5,4.74-.46.28-1,.61-1.32.8l-.24,0c-.12,0-.24,0-.24-.18s.16-.25.48-.46a6.88,6.88,0,0,0,1.19-.87c2.21-2,3.26-3.7,3.26-11.66v-9c0-4.83,0-5.67-.06-6.68s-.35-1.55-1.48-1.74a5,5,0,0,0-1.15-.12c-.13,0-.27-.06-.27-.18s.17-.25.55-.25c1.53,0,3.68.09,3.85.09s2.32-.09,3.32-.09c.37,0,.55.06.55.25s-.14.18-.27.18a4,4,0,0,0-.86.12c-.9.13-1.17.65-1.26,1.74s-.06,1.85-.06,6.68Z"/><path class="cls-2" d="M347.27,18.35c.4-1,.54-1.21.74-1.21s.35.16.74,1.11c.51,1.18,5.85,14,7.93,18.68,1.22,2.77,2.2,3.26,2.92,3.43a4.79,4.79,0,0,0,1.38.21c.18,0,.33,0,.33.16s-.32.26-.69.26-3,0-5.33-.08c-.65,0-1,0-1-.2s.12-.19.26-.21.41-.34.2-.84L351.55,32a.33.33,0,0,0-.3-.18h-7.34c-.17,0-.25.1-.34.27l-2,5.46a5.72,5.72,0,0,0-.48,2.08c0,.61.71.91,1.28.91h.34c.24,0,.34,0,.34.16s-.19.26-.49.26c-.82,0-2.29-.11-2.66-.11S337.65,41,336,41c-.43,0-.65-.08-.65-.26s.15-.16.32-.16.7-.05,1-.07c1.56-.19,2.24-1.37,2.85-2.92Zm3.52,12.38c.18,0,.18-.08.14-.21l-3.24-8.34c-.15-.46-.32-.46-.49,0l-3,8.34c-.05.17,0,.21.12.21Z"/><path class="cls-1" d="M91.52,53.36a8.4,8.4,0,0,0-3.9-1,5,5,0,0,0-2,.31c-.49.2-.71.5-.71.84s.25.66.75.86a10,10,0,0,0,1.76.26c1.18.07,2,.14,2.34.18a5,5,0,0,1,2.39.81,1.93,1.93,0,0,1,.77,1.65,2.34,2.34,0,0,1-1.2,2.12,6.67,6.67,0,0,1-3.5.75,8,8,0,0,1-5.11-1.45l.77-1a8.1,8.1,0,0,0,4.36,1.25,4.9,4.9,0,0,0,2.33-.43,1.2,1.2,0,0,0,.81-1.12c0-.54-.34-.91-1-1.07a19.42,19.42,0,0,0-3-.29,9.1,9.1,0,0,1-3-.59,1.78,1.78,0,0,1-1-1.69,2.16,2.16,0,0,1,1.13-1.9,6,6,0,0,1,3.22-.7,8.27,8.27,0,0,1,4.68,1.26Z"/><rect class="cls-1" x="96.34" y="51.36" width="1.41" height="8.61"/><polygon class="cls-1" points="110.86 59.97 101.84 59.97 101.84 51.36 110.53 51.36 110.53 52.64 103.26 52.64 103.26 54.86 108.31 54.86 108.31 56.13 103.26 56.13 103.26 58.71 110.86 58.71 110.86 59.97"/><polygon class="cls-1" points="126.05 59.97 124.62 59.97 124.62 52.91 124.59 52.91 120.09 58.54 115.68 52.91 115.62 52.91 115.62 59.97 114.21 59.97 114.21 51.36 115.98 51.36 120.12 56.55 124.26 51.36 126.05 51.36 126.05 59.97"/><path class="cls-1" d="M136.94,51.35a2.92,2.92,0,0,1,2.1.72,2.59,2.59,0,0,1,.79,2,2.48,2.48,0,0,1-.81,2,3.57,3.57,0,0,1-2.34.68h-5.12V60H130.1V51.35Zm-.24,4c1.09,0,1.66-.45,1.66-1.34s-.59-1.41-1.76-1.41h-5V55.4Z"/><path class="cls-1" d="M152.43,60h-1.66l-2.34-3.28h-4.33V60h-1.44V51.35h6.81a3,3,0,0,1,2.12.72,2.61,2.61,0,0,1,.79,2,2.57,2.57,0,0,1-.63,1.79,2.92,2.92,0,0,1-1.61.77Zm-3.19-4.58c1.1,0,1.66-.45,1.66-1.34s-.6-1.41-1.78-1.41h-5V55.4Z"/><polygon class="cls-1" points="164.89 59.97 155.84 59.97 155.84 51.36 164.54 51.36 164.54 52.64 157.28 52.64 157.28 54.86 162.31 54.86 162.31 56.13 157.28 56.13 157.28 58.71 164.89 58.71 164.89 59.97"/><path class="cls-1" d="M180.53,53.36a8.48,8.48,0,0,0-3.92-1,5.08,5.08,0,0,0-2,.31c-.48.2-.7.5-.7.84s.26.66.75.86a9.64,9.64,0,0,0,1.74.26c1.19.07,2,.14,2.35.18a5,5,0,0,1,2.42.81,1.94,1.94,0,0,1,.78,1.65,2.37,2.37,0,0,1-1.23,2.12,6.66,6.66,0,0,1-3.49.75,8.11,8.11,0,0,1-5.13-1.45l.79-1a8.08,8.08,0,0,0,4.34,1.25,5,5,0,0,0,2.35-.43,1.2,1.2,0,0,0,.8-1.12c0-.54-.35-.91-1-1.07a19,19,0,0,0-2.95-.29,9.17,9.17,0,0,1-3-.59,1.75,1.75,0,0,1-1-1.69,2.15,2.15,0,0,1,1.14-1.9,5.91,5.91,0,0,1,3.21-.7,8.2,8.2,0,0,1,4.67,1.26Z"/><polygon class="cls-1" points="194.37 59.97 185.34 59.97 185.34 51.36 194.03 51.36 194.03 52.64 186.78 52.64 186.78 54.86 191.81 54.86 191.81 56.13 186.78 56.13 186.78 58.71 194.37 58.71 194.37 59.97"/><path class="cls-1" d="M208.29,55.52a4.35,4.35,0,0,1-1.51,3.42,5.9,5.9,0,0,1-4,1.28A6.16,6.16,0,0,1,199,59.09a4.24,4.24,0,0,1,0-6.85,6.22,6.22,0,0,1,3.89-1.17,5.84,5.84,0,0,1,4.66,2.1l-1.33.66a4.48,4.48,0,0,0-3.47-1.44,4.55,4.55,0,0,0-2.74.81,2.92,2.92,0,0,0-1.28,2.46,3,3,0,0,0,1.1,2.36,4.56,4.56,0,0,0,2.92.88c1.92,0,3.16-.73,3.73-2.21h-4V55.4h5.81Z"/><path class="cls-1" d="M221.61,57.18a2.52,2.52,0,0,1-1.31,2.19,6.42,6.42,0,0,1-3.56.88,6.64,6.64,0,0,1-3.6-.87,2.52,2.52,0,0,1-1.31-2.19V51.35h1.44v5.48a1.72,1.72,0,0,0,.89,1.56,5,5,0,0,0,2.58.54,4.88,4.88,0,0,0,2.56-.54,1.72,1.72,0,0,0,.89-1.56V51.35h1.42Z"/><path class="cls-1" d="M235.39,60h-1.65L231.4,56.7H227V60h-1.42V51.35h6.78a3,3,0,0,1,2.14.72,2.67,2.67,0,0,1,.78,2,2.59,2.59,0,0,1-.63,1.79,2.93,2.93,0,0,1-1.6.77Zm-3.2-4.58c1.1,0,1.64-.45,1.64-1.34s-.57-1.41-1.77-1.41h-5V55.4Z"/><path class="cls-1" d="M249.42,55.66a4.15,4.15,0,0,1-1.73,3.42,6.12,6.12,0,0,1-3.78,1.14,6.21,6.21,0,0,1-3.83-1.14,4.25,4.25,0,0,1,0-6.85,6.08,6.08,0,0,1,3.79-1.17,5.91,5.91,0,0,1,3.75,1.17,4.1,4.1,0,0,1,1.76,3.42m-1.48,0a2.92,2.92,0,0,0-1.28-2.47,4.61,4.61,0,0,0-2.74-.81,4.49,4.49,0,0,0-2.94.92,2.9,2.9,0,0,0-1.13,2.35,3,3,0,0,0,1.1,2.36,4.63,4.63,0,0,0,3,.89,4.59,4.59,0,0,0,2.94-.89,3,3,0,0,0,1.09-2.36"/><polygon class="cls-1" points="267.28 51.35 262.56 56.58 262.56 59.97 261.13 59.97 261.13 56.58 256.43 51.35 258.22 51.35 261.87 55.37 265.5 51.35 267.28 51.35"/><polygon class="cls-1" points="284.52 59.97 282.74 59.97 276.17 52.9 276.17 59.97 274.74 59.97 274.74 51.36 276.49 51.36 283.1 58.44 283.1 51.36 284.52 51.36 284.52 59.97"/><path class="cls-1" d="M298.3,57.18A2.49,2.49,0,0,1,297,59.37a7.71,7.71,0,0,1-7.13,0,2.48,2.48,0,0,1-1.33-2.19V51.35H290v5.48a1.74,1.74,0,0,0,.89,1.56,6.41,6.41,0,0,0,5.15,0,1.75,1.75,0,0,0,.88-1.56V51.35h1.42Z"/><polygon class="cls-1" points="311.35 59.97 302.31 59.97 302.31 51.36 310.99 51.36 310.99 52.64 303.74 52.64 303.74 54.86 308.78 54.86 308.78 56.13 303.74 56.13 303.74 58.71 311.35 58.71 311.35 59.97"/><path class="cls-1" d="M322.24,53.36a8.47,8.47,0,0,0-3.91-1,5,5,0,0,0-2,.31c-.48.2-.72.5-.72.84s.24.66.74.86a9.88,9.88,0,0,0,1.76.26c1.18.07,2,.14,2.34.18a5,5,0,0,1,2.41.81,1.93,1.93,0,0,1,.77,1.65,2.37,2.37,0,0,1-1.22,2.12,6.69,6.69,0,0,1-3.49.75,8.13,8.13,0,0,1-5.13-1.45l.78-1a8.13,8.13,0,0,0,4.37,1.25,5,5,0,0,0,2.34-.43,1.2,1.2,0,0,0,.8-1.12c0-.54-.36-.91-1-1.07a19.07,19.07,0,0,0-3-.29,8.88,8.88,0,0,1-3-.59,1.74,1.74,0,0,1-1-1.69,2.11,2.11,0,0,1,1.14-1.9,5.93,5.93,0,0,1,3.19-.7,8.14,8.14,0,0,1,4.67,1.26Z"/><polygon class="cls-1" points="335.51 52.63 331.38 52.63 331.38 59.97 329.96 59.97 329.96 52.63 325.84 52.63 325.84 51.35 335.51 51.35 335.51 52.63"/><path class="cls-1" d="M348.15,60H346.5l-2.33-3.28h-4.35V60h-1.43V51.35h6.79a3,3,0,0,1,2.12.72,2.85,2.85,0,0,1,.16,3.77,3,3,0,0,1-1.63.77ZM345,55.4c1.11,0,1.66-.45,1.66-1.34s-.59-1.41-1.77-1.41h-5V55.4Z"/><path class="cls-1" d="M362.19,55.66a4.11,4.11,0,0,1-1.75,3.42,6,6,0,0,1-3.77,1.14,6.17,6.17,0,0,1-3.8-1.14,4.21,4.21,0,0,1,0-6.85,6.06,6.06,0,0,1,3.78-1.17,6,6,0,0,1,3.77,1.17,4.12,4.12,0,0,1,1.75,3.42m-1.47,0a3,3,0,0,0-1.28-2.47,4.63,4.63,0,0,0-2.77-.81,4.46,4.46,0,0,0-2.92.92,3,3,0,0,0,0,4.72,4.6,4.6,0,0,0,3,.89,4.53,4.53,0,0,0,2.93-.89,3,3,0,0,0,1.12-2.36"/></g></g></svg>